**ABCDEFGHIJKLMNOPQRSTUVWXYZabcdefghijklmnopqrstuvwxyz**************************
**PARASOLID !"#$%&'()*+,-./:;<=>?@[\]^_`{|}~0123456789**************************
**PART1;
MC=unknown;
MC_MODEL=unknown;
MC_ID=unknown;
OS=unknown;
OS_RELEASE=unknown;
FRU=Parasolid 35.1.246;
APPL=Onshape;
SITE=unknown;
USER=unknown;
FORMAT=text;
GUISE=transmit;
KEY=BTGapi::writeModels_.xmt;
FILE=BTGapi::writeModels_.xmt;
DATE=2024-02-24T03:00:41 (UTC);
**PART2;
SCH=SCH_3501246_35102;
USFLD_SIZE=0;
**PART3;
**END_OF_HEADER*****************************************************************
T51 : TRANSMIT FILE created by modeller version 350124623 SCH_3501246_35102_1300
6231 0 10 21 CCCCI7 lattice222 0 CCCI4 mesh1006 0 I8 polyline1008 0 CCCCCCCCCCA1
6 mesh_offset_data206 0 Z1 8 2 3 0 0 0 0 0 0 0 0 1e3 1e-8 0 0 0 1 0 1 4 0 81 255
 1 2 2 5 1 6 0 0 0 7 70 11 CI9 list_type0 0 1 uI10 notransmit0 0 1 lCCCDCCDI12 f
inger_index0 0 1 dI12 finger_block1012 0 CZ3 0 4 T1 0 0 3 20 1 8 8 11 255 4 6 9
 1 10 11 1 12 0 0 0 81 1 9 8 13 4 0 0 14 0 15 12 36 CCCI7 lattice222 0 CCCI4 mes
h1006 0 I8 polyline1008 0 CCCCCCCDI5 owner1040 0 CCCI16 boundary_lattice222 0 CC
CI13 boundary_mesh1006 0 I17 boundary_polyline1008 0 CCCA16 index_map_offset0 0
 1 dA9 index_map82 0 A17 node_id_index_map82 0 A20 schema_embedding_map82 0 A5 c
hild12 0 A14 lowest_node_id0 0 1 dA16 mesh_offset_data206 0 Z10 2319 16 17 0 0 0
 0 0 0 0 1e3 1e-8 4 18 0 1 0 1 1 19 0 20 21 22 0 0 23 24 25 0 0 0 0 0 0 0 100 10
 CCCCCCCCCA9 precision229 0 Z11 7 4 0 0 1 0 0 0 1 0 0 0 1 .0004235288740158385 .
001095636014177136 .01807700968663025 1 1 ?0 11 12 3 14 1 18 26 1 0 4 0 0 81 1 1
4 5 13 12 0 0 0 9 27 12 18 881 28 29 0 0 0 0 0 0 0 1e3 1e-8 12 0 10 1 0 1 2 30 0
 31 32 33 0 0 34 35 36 0 0 0 0 0 0 0 100 26 4 12 0 0 -90205620750794e-30 -1 0 1
 -90205620750794e-30 0 0 0 1 .000554768294883219 .00136998845018014 .07301896455
5023 1 3 ?0 81 1 28 881 5 18 37 0 0 0 38 70 29 0 4 T18 0 0 3 20 1 39 39 13 255 3
0 39 0 18 0 40 0 0 41 0 51 255 31 38 0 40 42 0 0 -0 367394039744206e-32 .007 0 0
 -1 .06 -1 0 0 30 255 32 625 0 35 43 0 0 +.059791303715507 .005 .007 0 0 -1 29 2
55 33 613 0 36 44 0 .059791303715507 -.005 .001 19 9 CCCCCCI5 frame230 0 CA5 own
er12 0 Z34 13 0 18 41 0 45 0 V0 16 255 35 623 0 ?46 0 47 32 0 0 18 18 255 36 611
 0 48 0 49 33 ?18 17 255 48 0 50 51 52 36 53 54 0 55 +18 49 214 0 56 36 57 44 ?1
8 17 56 0 58 59 60 49 61 62 0 63 -18 57 198 0 64 49 65 66 ?18 29 44 216 0 49 66
 33 -.059791303715507 .005 .001 29 66 200 0 57 67 44 .0567802782663136 .005 .001
 29 67 179 0 65 68 66 -.0567802782663136 -.005 .001 18 65 177 0 69 57 70 67 ?18
 29 68 488 0 70 71 67 .0567802782663136 .005 .004 18 70 382 0 72 65 73 68 ?18 29
 71 489 0 73 74 68 -.0567802782663136 .005 .004 18 73 366 0 75 70 76 71 ?18 29 7
4 490 0 76 77 71 -.059791303715507 .005 .004 18 76 364 0 78 73 79 74 ?18 29 77 4
91 0 79 80 74 .0567802782663135 -.005 .004 18 79 373 0 81 76 82 77 ?18 29 80 492
 0 82 83 77 -.0567802782663136 -.005 .004 18 82 372 0 84 79 85 80 ?18 29 83 493
 0 85 86 80 -.059791303715507 -.005 .004 18 85 371 0 87 82 88 83 ?18 29 86 495 0
 88 89 83 -.0567802782663136 .005 .001 18 88 365 0 60 85 90 86 ?18 29 89 497 0 9
0 91 86 .0567802782663136 -.005 .001 18 90 387 0 52 88 92 89 ?18 29 91 499 0 92
 93 89 -.059791303715507 -.005 .001 18 92 376 0 59 90 94 91 ?18 29 93 794 0 94 9
5 91 .059791303715507 .005 .004 18 94 723 0 96 92 97 93 ?18 29 95 795 0 97 98 93
 .059791303715507 -.005 .004 18 97 726 0 99 94 100 95 ?18 29 98 797 0 100 0 95 .
059791303715507 .005 .001 18 100 714 0 101 97 0 98 ?18 17 101 0 102 103 104 100
 64 105 0 51 +15 255 102 443 0 101 106 0 17 103 0 102 107 101 94 46 35 0 108 -17
 104 0 102 101 107 57 109 110 0 111 -17 64 0 50 52 51 57 101 105 0 104 -16 105 3
22 0 ?101 62 0 112 62 62 18 17 51 0 50 64 48 100 113 114 0 46 -15 50 439 0 48 11
5 0 17 113 0 116 117 46 36 51 114 0 0 +16 114 612 0 ?113 118 110 119 0 0 18 17 4
6 0 116 113 108 100 103 35 0 0 +15 116 609 0 108 40 120 17 108 0 116 46 117 94 1
21 47 0 0 -17 117 0 116 108 113 97 55 118 0 0 -17 121 0 122 123 96 97 108 47 0 1
17 +16 47 620 0 ?121 35 118 43 0 0 18 16 118 616 0 ?55 47 114 124 0 0 18 31 255
 43 622 0 47 124 32 0 +0 367394039744206e-32 .004 0 867361737988404e-31 -1 0 1 8
67361737988404e-31 .06 30 124 618 0 118 119 43 0 +.059791303715507 -.005 .007 0
 0 -1 31 119 614 0 114 125 124 0 +0 367394039744206e-32 .001 0 1301042606982604e
-31 -1 0 1 1301042606982604e-31 .06 30 125 210 0 110 126 119 0 -.056780278266313
6 .005 .005 0 0 -1 16 110 208 0 ?109 114 127 125 0 0 18 30 126 204 0 128 129 125
 0 -.0567802782663136 -.005 .005 0 0 -1 16 128 202 0 ?81 127 130 126 0 0 18 30 1
29 191 0 131 132 126 0 +-.0567802782663136 .005 .005 0 0 -1 16 131 189 0 ?133 13
0 134 129 0 0 18 31 132 188 0 134 135 129 0 +0 3490243377569955e-33 .004 0 -8673
61737988404e-31 1 0 -1 -867361737988404e-31 .057 16 134 186 0 ?84 131 136 132 12
7 127 18 30 135 184 0 136 137 132 0 +-.0567802782663136 -.005 .005 0 0 -1 16 136
 182 0 ?138 134 139 135 0 0 18 31 137 180 0 139 140 135 0 +0 3490243377569955e-3
3 .001 0 -1301042606982604e-31 1 0 -1 -1301042606982604e-31 .057 16 139 178 0 ?1
41 136 142 137 130 130 18 31 140 108 0 143 144 137 0 -0 3061616997868385e-33 .00
5 0 0 1 1 0 0 .05 16 143 126 0 ?145 146 147 140 0 0 18 31 144 33 0 148 149 140 0
 +0 367394039744206e-32 0 0 0 1 1 0 0 .06 16 148 28 0 ?150 142 151 144 0 0 18 31
 149 9 0 142 152 144 0 +0 367394039744206e-32 .007 0 0 1 1 0 0 .06 16 142 7 0 ?1
53 139 148 149 0 0 18 31 152 89 0 154 155 149 0 +0 3490243377569955e-33 0 0 0 1
 1 0 0 .057 16 154 63 0 ?156 151 146 152 0 0 18 31 155 90 0 151 157 152 0 +0 349
0243377569955e-33 .005 0 0 1 1 0 0 .057 16 151 68 0 ?158 148 154 155 0 0 18 31 1
57 163 0 146 159 155 0 -0 3061616997868385e-33 .007 0 0 1 1 0 0 .05 16 146 123 0
 ?160 154 143 157 0 0 18 30 159 472 0 147 161 157 0 +-.059791303715507 .005 .007
 0 0 -1 16 147 268 0 ?63 143 162 159 0 0 18 31 161 473 0 162 163 159 0 +0 367394
039744206e-32 .004 0 -867361737988404e-31 1 0 -1 -867361737988404e-31 .06 16 162
 271 0 ?164 147 165 161 0 0 18 30 163 474 0 165 166 161 0 +-.059791303715507 -.0
05 .007 0 0 -1 16 165 289 0 ?167 162 168 163 0 0 18 31 166 475 0 168 169 163 0 +
0 367394039744206e-32 .001 0 -1301042606982604e-31 1 0 -1 -1301042606982604e-31
 .06 16 168 349 0 ?59 165 170 166 0 0 18 30 169 476 0 171 172 166 0 +-.2425 .005
 .004 1 0 0 16 171 331 0 ?96 170 173 169 170 170 18 30 172 477 0 174 175 169 0 +
-.2425 -.005 .004 1 0 0 16 174 286 0 ?99 173 176 172 173 173 18 30 175 478 0 54
 112 172 0 +-.2425 -.005 .001 1 0 0 16 54 343 0 ?48 176 62 175 176 176 18 30 112
 479 0 105 0 175 0 +-.2425 .005 .001 1 0 0 16 176 307 0 ?69 174 54 175 54 54 18
 16 62 346 0 ?61 54 105 112 105 105 18 17 61 0 177 75 63 88 56 62 0 133 +15 177
 395 0 63 178 0 17 75 0 177 179 61 73 133 131 0 180 -17 63 0 177 61 179 49 181 1
47 0 182 +17 133 0 183 141 184 88 75 131 0 0 +15 183 175 0 184 185 186 17 141 0
 183 187 133 65 60 139 0 0 +17 184 0 183 133 187 73 84 134 0 0 -17 187 0 183 184
 141 82 138 136 0 0 -17 84 0 188 189 180 82 184 134 0 190 +15 188 407 0 180 191
 0 17 189 0 188 78 84 85 190 173 0 164 -17 180 0 188 84 78 73 179 170 0 184 +17
 190 0 192 138 87 82 189 173 0 187 +15 192 419 0 190 193 0 17 138 0 192 194 190
 65 187 136 0 141 +17 87 0 192 190 194 85 167 165 0 189 -16 173 340 0 ?190 171 1
74 172 174 174 18 17 194 0 192 87 138 92 69 176 0 167 -17 167 0 195 182 164 92 8
7 165 0 0 +15 195 227 0 181 40 0 17 182 0 195 181 167 49 59 168 0 0 -17 164 0 19
5 167 181 85 78 162 0 0 +17 181 0 195 164 182 76 63 147 0 0 -17 78 0 188 180 189
 76 164 162 0 179 -17 179 0 177 63 75 76 180 170 0 181 -16 170 265 0 ?180 168 17
1 169 171 171 18 17 59 0 58 69 56 92 182 168 0 194 +15 58 431 0 59 196 0 17 69 0
 58 60 59 65 194 176 0 138 +17 60 0 58 56 69 88 141 139 0 61 -14 255 196 428 0 ?
193 197 58 30 198 +115 115 193 197 45 14 193 416 0 ?191 196 192 30 199 -200 200
 191 196 45 14 197 145 0 ?196 201 202 30 203 +0 0 196 201 45 50 255 198 469 0 19
6 0 199 0 +-.2425 0 .001 0 -1301042606982604e-31 1 0 -1 -1301042606982604e-31 14
 115 452 0 ?106 204 50 30 198 +196 196 106 204 45 13 45 14 0 0 0 0 0 0 34 40 14
 40 35 0 ?185 0 116 30 31 -0 0 185 0 45 14 185 71 0 ?205 40 206 30 207 +0 0 205
 40 45 14 205 1 0 ?208 185 209 30 210 +0 0 208 185 45 15 206 74 0 158 185 211 51
 207 86 0 185 212 210 0 -0 3490243377569955e-33 .005 0 0 -1 .057 -1 0 0 50 212 8
8 0 201 203 207 0 +0 0 .005 0 0 1 1 0 0 50 210 3 0 205 207 42 0 +0 0 .007 0 0 1
 1 0 0 50 42 32 0 208 210 31 0 +0 0 0 0 0 1 1 0 0 14 208 23 0 ?201 205 213 30 42
 -0 0 201 205 45 14 201 76 0 ?197 208 214 30 212 -0 0 197 208 45 15 213 55 0 156
 208 215 17 156 0 213 156 156 0 216 154 0 0 +15 215 27 0 217 208 0 17 217 0 215
 217 217 0 150 148 0 0 -17 150 0 120 150 150 0 217 148 0 0 +15 120 36 0 150 40 2
18 15 218 34 0 219 40 195 17 219 0 218 219 219 0 153 142 0 0 -17 153 0 220 153 1
53 0 219 142 0 0 +15 220 6 0 153 205 0 17 216 0 211 216 216 0 156 154 0 0 -15 21
1 75 0 216 185 183 15 214 107 0 221 201 222 17 221 0 214 221 221 0 145 143 0 0 -
15 222 79 0 223 201 0 17 223 0 222 223 223 0 158 151 0 0 -17 158 0 206 158 158 0
 223 151 0 0 +17 145 0 224 145 145 0 221 143 0 0 +15 224 144 0 145 197 0 51 203
 160 0 197 225 212 0 -0 3061616997868385e-33 .025 0 0 -1 .05 -1 0 0 50 225 466 0
 106 226 203 0 +-.2425 .005 .0025 0 -1 0 0 0 -1 14 106 440 0 ?200 115 102 30 225
 +178 178 200 115 45 50 226 467 0 191 199 225 0 +-.2425 433680868994202e-33 .004
 0 -867361737988404e-31 1 0 -1 -867361737988404e-31 14 191 404 0 ?178 193 188 30
 226 -204 204 178 193 45 50 199 468 0 200 198 226 0 +-.2425 -.005 .0025 0 -1 0 0
 0 -1 14 200 448 0 ?0 106 227 30 199 -193 193 0 106 45 15 227 451 0 81 200 0 17
 81 0 227 99 53 79 228 128 0 123 +17 99 0 227 55 81 97 123 174 0 121 +17 53 0 22
7 81 55 90 48 54 0 228 -17 228 0 186 111 229 90 81 128 0 0 -17 123 0 122 72 121
 79 99 174 0 229 -15 122 415 0 72 204 0 17 72 0 122 96 123 70 229 127 0 107 +17
 229 0 186 228 109 79 72 127 0 0 -15 186 196 0 111 185 0 17 109 0 186 229 111 70
 104 110 0 0 +16 127 206 0 ?72 110 128 132 134 134 18 17 111 0 186 109 228 57 52
 130 0 0 +17 52 0 50 48 64 90 111 130 0 53 -16 130 199 0 ?111 128 131 137 139 13
9 18 17 96 0 122 121 72 94 107 171 0 103 +17 107 0 102 104 103 70 96 171 0 109 -
14 204 444 0 ?115 178 122 30 226 -191 191 115 178 45 14 178 392 0 ?204 191 177 3
0 225 +106 106 204 191 45 17 55 0 227 53 99 36 117 118 0 113 +15 209 113 0 160 2
05 220 17 160 0 209 160 160 0 230 146 0 0 +17 230 0 202 230 230 0 160 146 0 0 -1
5 202 143 0 230 197 224 19 41 40 0 18 0 34 30 0 S0 74 4 CI16 index_map_offset0 0
 1 dCCZ20 39 3 0 0 231 37 28 0 0 0 0 0 0 0 0 0 0 0 0 0 0 0 0 0 81 1 231 879 232
 18 0 37 0 0 233 81 1 37 880 234 18 231 28 0 0 235 80 7 CCCCCDI12 legal_owners0
 16 1 lCZ1 234 5 236 8038 0 0 0 0 0 0 0 0 0 TTTTTTTTTTTTTFTF10 98 255 6 235 80 9
7 114 116 32 49 79 255 14 236 SDL/TYSA_UNAME80 1 232 237 238 8040 0 0 0 0 3 5 0
 0 0 TTTFFFFFFFFFFFFF2 83 255 3 233 .615686274509804 .811764705882353 .929411764
705882 79 17 238 SDL/TYSA_COLOUR_280 1 5 239 240 8017 0 0 0 0 0 0 0 0 0 TTTTTTTT
TTTTTFTF3 84 255 6 38 Part 179 13 240 SDL/TYSA_NAME80 1 13 241 242 9000 0 0 0 0
 3 5 0 0 0 FTFFFFFFFFFFFFFF3 84 17 27 Mg5ZqD1voD+iDS2R379 14 242 BTI/InstanceId8
1 1 16 2319 5 10 243 0 0 0 244 70 17 0 4 T10 0 0 3 20 1 245 245 13 19 39 0 10 0
 246 0 0 247 0 51 20 38 0 246 248 0 0 -0 3459627207591275e-33 .06 0 0 -1 .0565 -
1 0 0 133 255 21 2267 0 249 250 0 0 +251 .005 .0562783262011229 .05875 -.005 .05
62783262011229 .05875 1.482184834235562 1.65940781935423 29 22 1846 0 25 252 0 .
005 .0562783262011229 .05875 19 23 13 0 10 247 0 253 0 V0 16 24 1848 0 ?254 0 24
9 255 0 0 10 18 25 1844 0 256 0 257 22 ?10 17 256 0 258 259 260 25 261 249 0 262
 -18 257 1228 0 263 25 264 252 ?10 17 263 0 265 266 267 257 268 269 0 270 -18 26
4 1215 0 271 257 272 273 ?10 29 252 1230 0 257 273 22 -.005 -.0562783262011229 .
05875 29 273 1217 0 264 274 252 .005 -.0562783262011229 .05625 29 274 1213 0 272
 275 273 .005 -.0562783262011229 .05875 18 272 1211 0 268 264 276 274 ?10 29 275
 689 0 277 278 274 0 -.0565 -433680868994202e-33 18 277 557 0 279 280 281 275 ?1
0 29 278 388 0 276 282 275 -695580020208045e-19 -.0564999785915156 6235476172742
82e-23 18 276 384 0 283 272 284 278 1222980799247534e-22 10 29 282 272 0 284 285
 278 .0564304419979792 -.00280271581019301 .007 18 284 187 0 286 276 287 282 ?10
 29 285 273 0 287 288 282 .0564304419979792 -.00280271581019295 -867361737988404
e-33 18 287 199 0 289 284 290 285 ?10 29 288 275 0 290 291 285 .0564304419979792
 -.0565 .007 18 290 195 0 292 287 293 288 ?10 29 291 276 0 293 294 288 .05643044
19979792 -.0565 -867361737988404e-33 18 293 200 0 295 290 280 291 ?10 29 294 662
 0 280 296 291 0 -.0565 .007 18 280 555 0 297 293 277 294 ?10 29 296 666 0 281 2
98 294 -695580020208045e-19 -.0564999571830312 .007 18 281 568 0 299 277 300 296
 ?10 29 298 673 0 300 301 296 -695580020208045e-19 -.0565 .007 18 300 569 0 302
 281 303 298 ?10 29 301 979 0 303 304 298 .0534304419979792 -.0385 .003 18 303 8
86 0 305 300 306 301 ?10 29 304 980 0 306 307 301 .0534304419979792 -.0385 .004
 18 306 897 0 308 303 309 304 ?10 29 307 981 0 309 310 304 .0424583060429796 -.0
385 .003 18 309 887 0 311 306 312 307 ?10 29 310 982 0 312 313 307 .042458306042
9796 -.0385 .004 18 312 885 0 314 309 315 310 ?10 29 313 983 0 315 316 310 .0424
583060429796 -.0535 .004 18 315 906 0 317 312 318 313 ?10 29 316 984 0 318 319 3
13 .0424583060429796 -.0535 .003 18 318 888 0 320 315 321 316 ?10 29 319 985 0 3
21 322 316 .002930441997979195 -.0535 .004 18 321 898 0 323 318 324 319 ?10 29 3
22 986 0 325 326 319 .002930441997979195 -.0535 .002274232298066125 18 325 904 0
 327 328 329 322 ?10 29 326 987 0 330 331 322 .0534304419979792 -.01700755621109
16 .003 18 330 895 0 332 329 333 326 ?10 29 331 988 0 333 334 326 .0167874685514
6495 -.0535 .003 18 333 889 0 335 330 336 331 ?10 29 334 989 0 324 337 331 .0029
30441997979195 -.0534196827929227 .002250874003605475 18 324 902 0 338 321 328 3
34 ?10 29 337 990 0 328 339 334 .0534304419979792 -.002727245478606705 .00225087
4003605475 18 328 893 0 340 324 325 337 ?10 29 339 991 0 329 341 337 .0534304419
979792 -.002727245478606715 .004 18 329 891 0 342 325 330 339 ?10 29 341 992 0 3
36 343 339 .002930441997979195 -.0534196827929227 .004 18 336 900 0 344 333 345
 341 ?10 29 343 1424 0 345 346 341 -.005 -.0562783262011229 .05625 18 345 1328 0
 347 336 348 343 ?10 29 346 1753 0 348 349 343 -.005 -.0585 .05625 18 348 1690 0
 350 345 351 346 ?10 29 349 1754 0 351 352 346 -.005 -.0585 .05875 18 351 1694 0
 266 348 353 349 ?10 29 352 1755 0 353 354 349 .005 -.0585 .05875 18 353 1692 0
 355 351 356 352 ?10 29 354 1756 0 356 357 352 .005 -.0585 .05625 18 356 1681 0
 358 353 359 354 ?10 29 357 2041 0 359 360 354 -.005 .0562783262011229 .05875 18
 359 1948 0 361 356 362 357 ?10 29 360 2042 0 362 363 357 -.005 .056278326201122
9 .05625 18 362 1960 0 364 359 365 360 ?10 29 363 2043 0 365 366 360 .005 .05627
83262011229 .05625 18 365 1956 0 367 362 368 363 ?10 29 366 2248 0 368 369 363 .
005 .0585 .05875 18 368 2178 0 259 365 370 366 ?10 29 369 2249 0 370 371 366 .00
5 .0585 .05625 18 370 2189 0 372 368 373 369 ?10 29 371 2250 0 373 374 369 -.005
 .0585 .05625 18 373 2186 0 375 370 376 371 ?10 29 374 2251 0 376 0 371 -.005 .0
585 .05875 18 376 2182 0 377 373 0 374 ?10 17 377 0 378 379 361 376 260 380 0 38
1 +15 378 1980 0 382 383 0 17 379 0 378 382 377 373 381 384 0 385 +17 361 0 378
 377 382 359 386 387 0 260 +17 260 0 258 256 388 359 377 380 0 261 -16 380 1914
 0 ?377 389 390 391 0 0 10 17 381 0 392 393 385 376 379 384 0 388 -15 392 2213 0
 393 394 0 17 393 0 392 395 381 368 388 396 0 0 +17 385 0 392 381 395 373 397 39
8 0 0 -16 384 2135 0 ?379 398 396 399 0 0 10 17 388 0 258 260 259 376 393 396 0
 0 -15 258 1976 0 256 400 0 17 259 0 258 388 256 368 262 401 0 402 +16 396 2155
 0 ?393 384 0 403 0 0 10 30 403 2241 0 396 0 399 0 +0 .0585 .05875 1 0 0 30 399
 2240 0 384 403 404 0 +-.005 .0585 .0575 0 0 -1 30 404 2239 0 398 399 405 0 +0 .
0585 .05625 1 0 0 16 398 2141 0 ?397 406 384 404 0 0 10 30 405 2238 0 406 404 40
7 0 +.005 .0585 .0575 0 0 -1 16 406 2158 0 ?395 401 398 405 0 0 10 30 407 2032 0
 401 405 408 0 +.005 .0544 .05875 0 1 0 16 401 1872 0 ?259 409 406 407 0 0 10 30
 408 2031 0 409 407 410 0 +.005 .0544 .05625 0 1 0 16 409 1926 0 ?372 390 401 40
8 0 0 10 30 410 2030 0 390 408 391 0 +-.005 .0544 .05625 0 1 0 16 390 1896 0 ?37
5 380 409 410 0 0 10 30 391 2029 0 380 410 411 0 +-.005 .0544 .05875 0 1 0 30 41
1 1746 0 389 391 412 0 +1734723475976805e-33 -.0585 .05625 -1 0 0 16 389 1627 0
 ?413 414 380 411 0 0 10 30 412 1745 0 414 411 415 0 +.005 -.0585 .0575 0 0 1 16
 414 1660 0 ?416 417 389 412 0 0 10 30 415 1744 0 417 412 418 0 +173472347597680
5e-33 -.0585 .05875 -1 0 0 16 417 1663 0 ?419 420 414 415 0 0 10 30 418 1743 0 4
20 415 421 0 +-.005 -.0585 .0575 0 0 1 16 420 1654 0 ?422 423 417 418 0 0 10 30
 421 1413 0 423 418 424 0 +-.005 -.0544 .05625 0 -1 0 16 423 1310 0 ?350 425 420
 421 0 0 10 30 424 1412 0 425 421 426 0 +-.005 -.0544 .05875 0 -1 0 16 425 1265
 0 ?266 427 423 424 0 0 10 30 426 1411 0 427 424 428 0 +.005 -.0544 .05875 0 -1
 0 16 427 1301 0 ?355 429 425 426 0 0 10 30 428 1410 0 429 426 430 0 +.005 -.054
4 .05625 0 -1 0 16 429 1253 0 ?358 431 427 428 0 0 10 31 430 1194 0 431 428 432
 0 -0 3061616997868385e-34 -.015 0 0 1 1 0 0 .005 16 431 1166 0 ?433 434 429 430
 0 0 10 31 432 978 0 435 430 436 0 +0 3459627207591275e-33 .004 0 0 1 1 0 0 .053
5 16 435 853 0 ?342 437 438 432 0 0 10 30 436 977 0 439 432 440 0 +.053430441997
9792 -.002727245478606705 .06 0 0 -1 16 439 855 0 ?441 442 443 436 0 0 10 31 440
 976 0 442 436 444 0 -0 3459627207591275e-33 .002250874003605475 0 0 1 1 0 0 .05
35 16 442 866 0 ?340 445 439 440 0 0 10 30 444 975 0 446 440 447 0 +.00293044199
7979195 -.0534196827929227 .06 0 0 -1 16 446 877 0 ?338 448 449 444 0 0 10 31 44
7 973 0 450 444 451 0 -0 3459627207591275e-33 .003 0 0 1 1 0 0 .0560719992542879
 16 450 861 0 ?452 438 445 447 0 0 10 38 12 CCCCCCCCCCCA17 intersection_data204
 0 Z451 972 0 445 447 453 0 +454 455 456 457 458 459 16 445 863 0 ?460 450 442 4
51 0 0 10 30 453 971 0 461 451 462 0 +.0534304419979792 -.0013 .004 0 -1 0 52 25
5 454 954 0 463 464 455 465 +0 3459627207591275e-33 .002880312998892215 0 0 1 .0
556610738838178 .960104332964071 .2796420387273995 1 0 0 50 455 953 0 466 454 46
7 468 +.0499304419979792 -.0535 .0035 0 -1 0 1 0 0 40 255 3 456 -1246.7363314772
68 1.0260813028274 3 274.179822485032 .227624231905725 ??1166.58515454679 -.0535
 339.7687525556215 .01045365059565842 -.0535 .00254555292004176 -343579744527935
e-19 -.0535 .002250877216935355 41 3 CI8 term_use0 0 1 cCZ1 457 L?1166.585154546
79 -.0535 339.7687525556215 41 1 458 L?-343579744527935e-19 -.0535 .002250877216
935355 204 2 17 INTERSECTION_DATA17 Intersection data7 uv_type0 0 1 u6 values0 1
 1 fT12 459 4 6.28313944683261 339.7658722426225 1166.535224104792 339.765252555
6215 4.90535308572362 -.000334760078850455 -.03947679140232075 -.000954447079958
242 4.71174677534302 -.00062943578195686 -.049964799972432 -.001249122783064646
 14 466 934 0 ?469 470 471 19 455 -0 0 469 470 253 50 467 952 0 472 455 473 474
 +.0534304419979792 -.0013 .0035 1 0 0 0 0 -1 141 255 468 451 468 468 455 14 472
 928 0 ?470 463 475 19 467 -0 0 470 463 253 50 473 951 0 469 467 476 477 +.00293
0441997979195 -.0013 .0035 1 0 0 0 0 -1 141 474 478 474 474 467 38 478 963 0 437
 479 480 0 +467 454 481 482 483 484 16 437 871 0 ?485 486 435 478 0 0 10 31 479
 964 0 487 488 478 0 +.0469304419979792 -.0385 .0035 0 -1 0 0 0 -1 .0045 38 480
 962 0 486 478 489 0 +473 454 490 491 492 493 40 2 481 0 1 2 .000537039332309031
 .0732693645486133 ??.0534304419979792 -.0170075562110916 .003 .0534304419979792
 -.002727245478606705 .002250874003605475 41 1 482 L?.0534304419979792 -.0170075
562110916 .003 41 1 483 L?.0534304419979792 -.002727245478606705 .00225087400360
5475 204 8 484 4 5e-4 -.0157075562110916 5.97501422566775 .0001196870011077876 .
001249125996394528 -.0014272454786067 6.23218665230153 -.000629438995286739 16 4
86 865 0 ?494 495 437 480 0 0 10 31 489 961 0 438 480 496 0 +0 3459627207591275e
-33 .06 0 0 1 1 0 0 .0535 40 2 490 0 1 2 505120512872201e-25 120687000365612e-20
 ??.002930441997979195 -.0535 .00227423229806613 .002930441997979195 -.053419682
7929227 .002250874003605475 41 1 491 L?.002930441997979195 -.0535 .0022742322980
6613 41 1 492 L?.002930441997979195 -.0534196827929227 .002250874003605475 204 8
 493 4 .001225767701933874 -.0522 4.76710891623066 -.000606080700826085 .0012491
25996394526 -.0521196827929227 4.76719102388434 -.000629438995286739 16 438 857
 0 ?497 435 450 489 0 0 10 30 496 960 0 495 489 498 0 +.0424583060429796 -.0415
 .004 0 -1 0 16 495 884 0 ?317 499 486 496 0 0 10 30 498 959 0 499 496 500 0 -.0
424583060429796 -.0415 .003 0 -1 0 16 499 883 0 ?501 502 495 498 0 0 10 30 500 9
58 0 502 498 503 0 +.0499304419979792 -.0385 .004 1 0 0 16 502 872 0 ?308 504 49
9 500 0 0 10 30 503 957 0 504 500 505 0 +.0499304419979792 -.0385 .003 1 0 0 16
 504 848 0 ?305 506 502 503 0 0 10 30 505 956 0 506 503 507 0 +.0534304419979792
 -.0385 .0035 0 0 -1 16 506 870 0 ?508 509 504 505 0 0 10 31 507 829 0 510 505 5
11 0 +.0509304419979792 -.0415 .0035 0 -1 0 0 0 -1 .0015 16 510 773 0 ?512 513 5
14 507 0 0 10 31 511 828 0 514 507 515 0 +.0509304419979792 -.0565 .0035 0 -1 0
 0 0 -1 .0015 16 514 776 0 ?516 510 517 511 0 0 10 31 515 827 0 517 511 518 0 +.
0469304419979792 -.0415 .0035 0 -1 0 0 0 -1 .0015 16 517 795 0 ?519 514 509 515
 0 0 10 31 518 826 0 509 515 520 0 +.0469304419979792 -.0565 .0035 0 -1 0 0 0 -1
 .0015 16 509 798 0 ?521 517 506 518 0 0 10 30 520 658 0 513 518 522 0 +-6955800
20208045e-19 -.0013 .007 0 -1 0 16 513 467 0 ?302 523 510 520 0 0 10 30 522 652
 0 524 520 525 0 +-695580020208045e-19 -.0565 .007 1 0 0 16 524 529 0 ?526 527 5
23 522 0 0 10 133 525 649 0 523 522 528 0 +528 -695580020208045e-19 -.0565 -8673
61737988404e-33 -695580020208045e-19 -.0565 .007 -.0035 .0035 16 523 515 0 ?529
 524 513 525 0 0 10 30 528 648 0 10 525 530 531 +-695580020208045e-19 -.0565 .00
35 0 0 1 133 530 645 0 527 528 532 0 +532 -695580020208045e-19 -.056499957183031
2 .007 -695580020208045e-19 -.0564999571830312 0 .053 .06 141 531 525 531 531 52
8 16 527 512 0 ?533 534 524 530 0 0 10 30 532 644 0 10 530 535 536 +-69558002020
8045e-19 -.0564999571830312 .06 0 0 -1 30 535 264 0 534 532 537 0 +.049930441997
9792 -.0565 0 -1 0 0 141 536 530 536 536 532 16 534 160 0 ?279 538 527 535 0 0 1
0 30 537 263 0 538 535 539 0 +.0564304419979792 -.0565 .0035 0 0 1 16 538 181 0
 ?540 541 534 537 0 0 10 30 539 262 0 541 537 542 0 +.0499304419979792 -.0565 .0
07 -1 0 0 16 541 184 0 ?297 543 538 539 0 0 10 30 542 260 0 543 539 544 0 +.0564
304419979792 -.0013 .007 0 -1 0 16 543 163 0 ?292 545 541 542 0 0 10 30 544 259
 0 545 542 546 0 +.0564304419979792 -.0013 -867361737988404e-33 0 -1 0 16 545 14
5 0 ?295 547 543 544 0 0 10 30 546 257 0 547 544 548 0 +.0564304419979792 -.0028
0271581019301 .06 0 0 -1 16 547 166 0 ?549 550 545 546 0 0 10 31 548 89 0 551 54
6 552 553 -0 3459627207591275e-33 0 0 0 1 1 0 0 .0565 16 551 65 0 ?554 555 556 5
48 0 0 10 31 552 9 0 555 548 557 0 +0 3459627207591275e-33 .06 0 0 1 1 0 0 .0565
 141 553 558 553 553 548 133 558 389 0 550 557 559 0 +548 -695579493082684e-19 -
.0564999571830961 0 .0564304419979792 -.00280271581019295 0 4.71115786592665 -.0
496259563206074 16 550 385 0 ?289 556 547 558 0 0 10 31 557 110 0 560 552 558 0
 +0 3459627207591275e-33 .007 0 0 1 1 0 0 .0565 31 559 398 0 561 558 562 0 +0 34
59627207591275e-33 .007 0 0 1 1 0 0 .0565 16 561 396 0 ?563 269 560 559 0 0 10 1
33 562 687 0 556 559 564 0 +564 0 -.0565 -433680868994202e-33 -695579997849069e-
19 -.0565 1247095154288238e-23 777540043144024e-37 695580009028562e-19 16 556 10
0 0 ?565 551 550 562 0 0 10 38 564 688 0 10 562 566 567 +568 569 570 571 572 573
 31 566 1151 0 434 564 574 0 -0 3459627207591275e-33 -.01187533958862754 0 0 1 1
 0 0 .005 141 567 562 567 567 564 50 568 631 0 10 575 576 577 +-695580020208045e
-19 -.0565 .0035 0 1 0 0 0 1 52 569 87 0 578 579 248 580 +0 3459627207591275e-33
 0 0 0 1 .0565 .960104332964071 .2796420387273995 1 0 0 40 2 570 0 1 2 124709515
4288238e-23 .000358576909139178 ??0 -.0565 0 -69557999784906e-18 -.0565 12470951
54288238e-23 41 1 571 L?0 -.0565 0 41 1 572 L?-69557999784906e-18 -.0565 1247095
154288238e-23 204 8 573 4 -.0035 695580020208045e-19 4.71238898038469 0 -.003499
98752904846 223589850518839e-26 4.71115786596623 1247095154288238e-23 14 578 78
 0 ?581 582 583 19 569 +0 0 581 582 253 50 579 250 0 584 585 569 0 +.04993044199
79792 -.0013 0 0 0 1 1 0 0 50 248 3 0 582 569 20 0 +0 0 .06 0 0 1 1 0 0 141 580
 564 580 580 569 14 582 1 0 ?578 246 586 19 248 +0 0 578 246 253 14 246 35 0 ?58
2 0 587 19 20 -0 0 582 0 253 15 586 842 0 588 582 589 13 253 14 0 0 0 0 0 0 23 2
46 17 588 0 586 588 588 0 497 438 0 0 -15 589 6 0 590 582 0 17 590 0 589 590 590
 0 591 555 0 0 +17 591 0 592 591 591 0 590 555 0 0 -16 555 7 0 ?590 560 551 552
 0 0 10 16 560 108 0 ?593 561 555 557 0 0 10 17 593 0 594 549 563 284 595 560 0
 0 +15 594 113 0 563 246 596 17 549 0 594 597 593 287 286 547 0 0 +17 563 0 594
 593 598 280 299 561 0 0 +17 595 0 599 600 601 280 593 560 0 526 -15 599 238 0 5
95 602 0 17 600 0 599 601 595 290 297 541 0 540 -17 601 0 599 595 600 284 292 54
3 0 593 -17 526 0 603 299 302 280 604 524 0 563 +15 603 614 0 299 605 0 17 299 0
 603 302 526 281 563 561 0 606 -17 302 0 603 526 299 300 606 513 0 604 +17 604 0
 607 283 297 300 526 524 0 529 -15 607 246 0 297 608 0 17 283 0 607 609 604 276
 529 523 0 533 -17 297 0 607 604 540 280 600 541 0 595 +17 529 0 610 606 533 300
 283 523 0 0 +15 610 606 0 606 611 0 17 606 0 610 533 529 281 302 513 0 598 -17
 533 0 610 529 606 276 598 527 0 597 +17 598 0 594 563 597 281 533 527 0 0 -17 5
97 0 594 598 549 276 289 550 0 565 -17 289 0 612 554 565 287 597 550 0 613 +17 5
65 0 612 289 554 276 609 556 0 0 +15 612 82 0 554 578 0 17 554 0 612 565 289 277
 613 551 0 609 +17 609 0 607 614 283 277 565 556 0 0 -17 614 0 607 540 609 293 2
79 534 0 0 -17 540 0 607 297 614 290 615 538 0 0 +17 279 0 616 613 295 277 614 5
34 0 554 +15 616 230 0 613 584 0 17 613 0 616 295 279 287 554 551 0 617 -17 295
 0 616 279 613 293 617 545 0 615 +17 617 0 618 286 615 287 295 545 0 549 -17 615
 0 618 617 292 293 540 538 0 614 -15 618 222 0 286 581 0 17 292 0 618 615 286 29
0 601 543 0 600 +17 286 0 618 292 617 284 549 547 0 601 -14 581 231 0 ?584 578 6
18 19 585 +0 0 584 578 253 14 584 227 0 ?602 581 616 19 579 -0 0 602 581 253 50
 585 251 0 581 619 579 0 +.0564304419979792 -.0013 .0035 1 0 0 0 0 -1 50 619 252
 0 602 620 585 0 +.0499304419979792 -.0013 .007 0 0 1 1 0 0 14 602 235 0 ?608 58
4 599 19 619 +0 0 608 584 253 50 620 253 0 608 576 619 0 +.0499304419979792 -.05
65 .0035 0 -1 0 1 0 0 14 608 243 0 ?611 602 621 19 620 +0 0 611 602 253 50 576 6
30 0 605 568 620 0 +-695580020208045e-19 -.0013 .007 0 0 1 1 0 0 14 605 611 0 ?6
22 611 603 19 576 +0 0 622 611 253 14 622 803 0 ?623 605 624 19 625 -0 0 623 605
 253 14 611 619 0 ?605 608 610 19 575 -0 0 605 608 253 50 575 634 0 611 625 568
 0 +-695580020208045e-19 -.0013 .0035 1 0 0 0 0 -1 51 625 820 0 622 626 575 0 +.
0469304419979792 -.0415 .0035 0 -1 0 .0015 0 0 -1 50 626 822 0 623 627 625 0 +.0
281801362527794 -.0415 .003499709872538275 0 -1 0 1 0 0 14 623 808 0 ?628 622 62
9 19 626 +0 0 628 622 253 51 627 823 0 628 630 626 0 +.0509304419979792 -.0415 .
0035 0 -1 0 .0015 0 0 -1 14 628 781 0 ?631 623 632 19 627 -0 0 631 623 253 50 63
0 825 0 631 633 627 0 +.0281801362527794 -.0415 .003499709872538275 0 -1 0 1 0 0
 14 631 786 0 ?634 628 635 19 630 +0 0 634 628 253 50 633 945 0 634 636 630 0 +.
0281801362527794 -.0385 .003499709872538275 0 -1 0 1 0 0 14 634 907 0 ?637 631 6
38 19 633 -0 0 637 631 253 51 636 946 0 639 640 633 0 +.0469304419979792 -.0415
 .0035 0 -1 0 .0045 0 0 -1 14 639 940 0 ?641 469 642 19 636 +0 0 641 469 253 50
 640 947 0 470 643 636 0 +.0499304419979792 -.0013 .004 0 0 1 1 0 0 14 470 931 0
 ?466 472 644 19 640 -0 0 466 472 253 50 643 948 0 637 476 640 0 +.0499304419979
792 -.0013 .003 0 0 1 1 0 0 14 637 911 0 ?645 634 646 19 643 +0 0 645 634 253 51
 476 950 0 645 473 643 0 -0 3459627207591275e-33 .06 0 0 -1 .0535 -1 0 0 14 645
 914 0 ?463 637 647 19 476 +0 0 463 637 253 14 463 924 0 ?472 645 648 19 454 -0
 0 472 645 253 15 647 916 0 497 645 649 17 497 0 647 497 497 0 588 438 0 0 +15 6
49 917 0 338 645 0 17 338 0 649 340 650 324 651 446 0 652 +17 340 0 649 653 338
 328 652 442 0 441 +17 650 0 649 338 653 336 342 435 0 651 -17 651 0 654 323 494
 336 338 446 0 0 -17 652 0 655 327 485 324 340 442 0 494 -15 655 927 0 656 463 0
 17 327 0 655 657 652 325 494 486 0 658 -17 485 0 655 652 656 328 332 437 0 0 +1
7 494 0 654 651 658 324 327 486 0 0 +15 654 939 0 323 469 0 17 658 0 654 494 323
 325 659 449 0 460 -17 323 0 654 658 651 321 344 660 0 661 +17 659 0 471 662 460
 321 658 449 0 0 +16 449 879 0 ?659 446 660 663 0 0 10 17 460 0 471 659 335 325
 657 445 0 0 +15 471 936 0 664 466 0 17 335 0 471 460 664 333 665 448 0 452 +17
 657 0 655 656 327 333 460 445 0 0 -17 656 0 655 485 657 330 452 450 0 666 -17 4
52 0 646 665 666 333 656 450 0 657 +17 666 0 646 452 305 330 667 443 0 0 -15 646
 913 0 305 637 0 17 305 0 646 666 501 303 311 504 0 508 +17 667 0 475 668 332 30
3 666 443 0 0 +16 443 851 0 ?667 439 461 462 0 0 10 16 461 868 0 ?669 443 670 45
3 0 0 10 30 462 970 0 443 453 671 0 +.0534304419979792 -.0013 .003 0 -1 0 30 671
 969 0 448 462 672 0 +.0499304419979792 -.0535 .003 -1 0 0 16 448 849 0 ?335 670
 446 671 0 0 10 31 672 968 0 673 671 674 0 +.0469304419979792 -.0535 .0035 0 -1
 0 0 0 -1 .0045 16 673 881 0 ?664 487 434 672 0 0 10 30 674 967 0 670 672 663 0
 +.0499304419979792 -.0535 .004 -1 0 0 16 670 875 0 ?661 461 448 674 0 0 10 30 6
63 966 0 449 674 488 0 +.0029304419979792 -.0535 .0035 0 0 1 30 488 965 0 660 66
3 479 0 +.002930441997979195 -.0013 .004 0 -1 0 16 660 873 0 ?323 449 487 488 0
 0 10 16 487 846 0 ?675 660 673 479 0 0 10 17 675 0 642 320 676 309 677 487 0 0
 +15 642 942 0 678 639 0 17 320 0 642 678 675 318 501 499 0 664 -17 676 0 642 67
5 678 312 317 495 0 677 -17 677 0 638 308 311 312 675 487 0 0 -15 638 910 0 508
 634 0 17 308 0 638 508 677 306 314 502 0 668 +17 311 0 638 677 508 309 305 504
 0 501 -17 508 0 638 311 308 303 668 506 0 667 +17 501 0 646 305 665 309 320 499
 0 675 +17 665 0 646 501 452 318 335 448 0 0 -17 668 0 475 679 667 306 508 506 0
 669 -15 475 930 0 679 472 0 17 679 0 475 441 668 329 669 461 0 0 -17 669 0 644
 314 342 306 679 461 0 0 +15 644 933 0 314 470 0 17 314 0 644 317 669 312 308 50
2 0 676 -17 342 0 644 669 344 329 650 435 0 653 +17 344 0 644 342 661 336 323 66
0 0 650 -17 653 0 649 650 340 329 441 439 0 679 -17 441 0 475 332 679 328 653 43
9 0 485 +17 332 0 475 667 441 330 485 437 0 656 -17 661 0 644 344 317 321 662 67
0 0 659 +17 317 0 644 661 314 315 676 495 0 662 +17 662 0 471 664 659 315 661 67
0 0 678 -17 664 0 471 335 662 318 678 673 0 665 +17 678 0 642 676 320 315 664 67
3 0 0 -16 434 1160 0 ?680 673 431 566 0 0 10 17 680 0 648 680 680 0 681 434 0 0
 +15 648 1149 0 680 463 655 17 681 0 682 681 681 0 680 434 0 0 -15 682 1175 0 68
1 641 0 14 641 1176 0 ?683 639 684 19 464 -0 0 683 639 253 14 683 1354 0 ?685 64
1 686 19 687 -0 0 685 641 253 15 684 1174 0 433 641 682 51 464 1191 0 641 687 45
4 0 +0 3061616997868385e-34 .01 0 0 -1 .005 -1 0 0 50 687 1404 0 683 688 464 0 +
1734723475976805e-33 -.0544 .05625 0 0 1 1 0 0 50 688 1405 0 685 689 687 0 +.005
 -.0544 .0575 1 0 0 0 0 -1 14 685 1382 0 ?690 683 691 19 688 +0 0 690 683 253 50
 689 1406 0 690 692 688 0 +1734723475976805e-33 -.0544 .05875 0 0 1 1 0 0 14 690
 1366 0 ?693 685 265 19 689 +0 0 693 685 253 50 692 1407 0 693 694 689 0 +-.005
 -.0544 .0575 1 0 0 0 0 -1 14 693 1390 0 ?695 690 696 19 692 -0 0 695 690 253 50
 694 1730 0 695 697 692 0 +1734723475976805e-33 -.0585 .0575 0 -1 0 1 0 0 14 695
 1715 0 ?400 693 698 19 694 +0 0 400 693 253 50 697 2023 0 400 699 694 0 +0 .054
4 .05875 0 0 1 1 0 0 14 400 1973 0 ?383 695 258 19 697 +0 0 383 695 253 50 699 2
024 0 383 700 697 0 +-.005 .0544 .0575 1 0 0 0 0 -1 14 383 2001 0 ?701 400 378 1
9 699 -0 0 701 400 253 50 700 2025 0 701 702 699 0 +0 .0544 .05625 0 0 1 1 0 0 1
4 701 1985 0 ?703 383 704 19 700 -0 0 703 383 253 50 702 2026 0 703 705 700 0 +.
005 .0544 .0575 1 0 0 0 0 -1 14 703 2009 0 ?394 701 706 19 702 +0 0 394 701 253
 50 705 2225 0 394 0 702 0 +0 .0585 .0575 0 -1 0 1 0 0 14 394 2210 0 ?0 703 392
 19 705 -0 0 0 703 253 15 706 1992 0 707 703 0 17 707 0 706 372 262 365 254 24 0
 708 -17 372 0 706 402 707 370 708 409 0 397 +17 262 0 706 707 402 25 259 401 0
 254 -17 254 0 596 261 367 25 707 24 0 0 +17 708 0 704 364 397 365 372 409 0 0 -
15 704 1988 0 708 701 0 17 364 0 704 375 708 362 367 709 0 382 +17 397 0 704 708
 375 370 385 398 0 395 +17 375 0 704 397 364 373 382 390 0 379 +17 395 0 392 385
 393 370 402 406 0 0 +17 402 0 706 262 372 368 395 406 0 393 -17 382 0 378 361 3
79 362 375 390 0 386 -17 386 0 596 367 261 362 361 387 0 0 -15 596 1852 0 367 24
6 0 17 367 0 596 254 386 365 364 709 0 707 -17 261 0 596 386 254 359 256 249 0 0
 +16 387 1835 0 ?361 249 709 710 0 0 10 16 249 1838 0 ?261 24 387 21 0 0 10 16 7
09 1831 0 ?364 387 711 250 0 0 10 30 710 1837 0 387 712 251 0 --.005 .0562783262
011229 .06 0 0 -1 31 712 1833 0 10 713 710 714 +0 3459627207591275e-33 .05625 0
 0 1 1 0 0 .0565 31 251 1840 0 10 710 255 715 +0 3459627207591275e-33 .05875 0 0
 1 1 0 0 .0565 30 255 1850 0 24 251 250 0 -.005 .0562783262011229 .06 0 0 -1 141
 715 21 715 715 251 133 250 2256 0 709 255 21 0 +712 .005 .0562783262011229 .056
25 -.005 .0562783262011229 .05625 1.482184834235562 1.65940781935423 133 713 177
1 0 716 717 712 0 +718 -.005 -.0562783262011229 .05625 .005 -.0562783262011229 .
05625 4.62377748782536 4.80100047294403 141 714 250 714 714 712 16 716 1219 0 ?7
19 711 720 713 0 0 10 133 717 1761 0 269 721 713 0 +574 -.005 -.0562783262011229
 .05875 .005 -.0562783262011229 .05875 4.62377748782536 4.80100047294403 31 718
 1221 0 10 722 721 723 +0 3459627207591275e-33 .05625 0 0 1 1 0 0 .0565 30 722 1
218 0 720 574 718 0 +.005 -.0562783262011229 .06 0 0 -1 30 721 1231 0 711 718 71
7 0 +-.005 -.0562783262011229 .06 0 0 -1 141 723 713 723 723 718 16 711 1229 0 ?
724 709 716 721 0 0 10 17 724 0 696 350 725 345 270 711 0 726 +15 696 1373 0 725
 693 0 17 350 0 696 422 724 348 726 423 0 413 +17 725 0 696 724 422 257 266 425
 0 0 -17 270 0 587 268 347 257 724 711 0 725 -17 726 0 686 719 413 345 350 423 0
 0 -15 686 1357 0 726 683 0 17 719 0 686 358 726 264 347 716 0 727 +17 413 0 686
 726 358 348 728 389 0 729 +17 358 0 686 413 719 356 727 429 0 730 +17 728 0 698
 416 729 356 413 389 0 0 -17 729 0 698 728 419 348 422 420 0 0 -15 698 1718 0 72
8 695 0 17 419 0 698 729 416 351 731 417 0 422 +17 422 0 696 725 350 351 729 420
 0 0 +17 416 0 698 419 728 353 730 414 0 731 +17 731 0 265 267 266 353 419 417 0
 0 -15 265 1369 0 263 690 0 17 267 0 265 263 731 272 355 427 0 0 -17 266 0 265 7
31 263 351 725 425 0 419 +17 355 0 691 730 732 353 267 427 0 416 +15 691 1361 0
 732 685 0 17 730 0 691 727 355 356 416 414 0 728 -17 732 0 691 355 727 272 271
 720 0 267 -17 727 0 691 732 730 264 358 429 0 0 -17 271 0 587 347 268 264 732 7
20 0 719 +16 720 1216 0 ?271 716 269 722 0 0 10 16 269 1212 0 ?268 720 561 717 0
 0 10 17 268 0 587 271 270 272 263 269 0 732 +15 587 1220 0 270 246 592 15 592 3
4 0 591 246 594 17 347 0 587 270 271 345 719 716 0 724 -31 574 1214 0 10 566 722
 733 +0 3459627207591275e-33 .05875 0 0 1 1 0 0 .0565 141 733 717 733 733 574 17
 433 0 684 433 433 0 734 431 0 0 +17 734 0 583 734 734 0 433 431 0 0 -15 583 81
 0 734 578 612 14 469 937 0 ?639 466 654 19 473 +0 0 639 466 253 15 635 789 0 51
2 631 0 17 512 0 635 512 512 0 735 510 0 0 +17 735 0 632 735 735 0 512 510 0 0 -
15 632 784 0 735 628 736 15 736 785 0 516 628 0 17 516 0 736 516 516 0 737 514 0
 0 +17 737 0 621 737 737 0 516 514 0 0 -15 621 763 0 737 608 738 15 738 756 0 73
9 608 607 17 739 0 738 739 739 0 521 509 0 0 -17 521 0 740 521 521 0 739 509 0 0
 +15 740 807 0 521 622 0 15 629 811 0 519 623 0 17 519 0 629 519 519 0 741 517 0
 0 +17 741 0 624 741 741 0 519 517 0 0 -15 624 806 0 741 622 740 141 577 564 577
 577 568 141 477 480 477 477 473 141 465 451 742 743 454 141 742 480 743 465 454
 141 743 478 465 742 454 19 247 40 0 10 0 23 19 0 S0 74 20 245 3 0 0 744 243 16
 0 0 0 0 0 0 0 0 0 0 0 0 0 0 0 0 0 81 1 744 2317 232 10 0 243 0 0 745 81 1 243 2
318 234 10 744 16 0 0 746 98 6 746 80 97 114 116 32 49 83 3 745 .615686274509804
 .811764705882353 .929411764705882 84 6 244 Part 184 17 15 MK0KzqxmLExokx0hx74 2
0 8 3 0 0 6 2 9 0 0 0 0 0 0 0 0 0 0 0 0 0 0 0 0 0 81 1 6 1 234 1 0 2 0 0 747 98
 10 747 65 115 115 101 109 98 108 121 32 49 84 10 7 Assembly 11 0 
